<svg width="211" height="92" viewBox="0 0 211 92" fill="none" xmlns="http://www.w3.org/2000/svg">
  <path d="M0.661682 34.5183C0.701965 34.4158 0.742233 34.317 0.789841 34.2145C0.837448 34.1119 0.859436 34.0131 0.91803 33.9179L10.454 18.0281L7.80272 12.7339C6.93846 10.9985 7.64157 8.89325 9.37373 8.02553C9.68501 7.8681 10.0183 7.76192 10.3625 7.70334L28.4128 4.6938L36.9784 3.26957C79.0079 -3.61724 122.129 3.44531 159.756 23.3808L170.102 28.902L185.896 32.4095C196.633 34.7746 205.723 41.8701 210.619 51.7079C210.864 52.1948 210.996 52.7294 210.996 53.2713V77.8346C210.996 79.7714 209.425 81.3457 207.488 81.3457H190.565C184.809 91.3812 172.006 94.8484 161.972 89.0929C158.746 87.244 156.072 84.5676 154.219 81.3457H57.1967C51.4436 91.3775 38.6446 94.8484 28.6069 89.1002C25.3477 87.233 22.6524 84.5237 20.7994 81.2542C20.4002 81.1846 20.0157 81.0455 19.6642 80.8441L2.11551 70.318C1.06084 69.6846 0.412674 68.5423 0.412674 67.3121V35.7265C0.423645 35.3128 0.507874 34.9064 0.661682 34.5183ZM78.1437 8.00723C64.7661 7.28962 51.352 8.02553 38.1319 10.2076L36.2899 10.5152L54.516 28.7079H81.1063L78.1437 8.00723ZM159.54 76.4323C162.657 83.5095 170.922 86.7241 178.005 83.6084C185.083 80.4926 188.299 72.2292 185.182 65.1484C182.066 58.0675 173.8 54.8566 166.718 57.9723C161.624 60.213 158.343 65.2545 158.354 70.816C158.361 72.7491 158.764 74.6603 159.54 76.4323ZM94.7145 74.3234H151.63C151.63 74.199 151.63 74.0745 151.601 73.9537C151.433 72.9139 151.345 71.8667 151.334 70.816C151.334 59.1878 160.764 49.7638 172.394 49.7638C184.025 49.7638 193.451 59.1915 193.451 70.816C193.444 71.8667 193.352 72.9175 193.184 73.9537C193.165 74.0781 193.184 74.2026 193.158 74.3234H203.98V60.2899H196.959V53.2713H203.467C199.362 46.1245 192.437 41.0354 184.388 39.256L168.501 35.7265H89.2178L94.7145 74.3234ZM154.827 28.7079C133.188 17.5155 109.575 10.6506 85.3067 8.49783L88.196 28.7079H154.827ZM26.1716 76.4323C29.2881 83.5095 37.5533 86.7241 44.6358 83.6084C51.7182 80.4926 54.9298 72.2292 51.8134 65.1484C48.697 58.0675 40.4317 54.8566 33.3493 57.9723C28.2554 60.213 24.9741 65.2545 24.9851 70.816C24.9888 72.7491 25.3953 74.6603 26.1716 76.4323ZM7.43651 65.3204L17.965 71.6471C17.965 71.3688 17.9466 71.0942 17.9466 70.816C17.9466 59.1878 27.3764 49.7601 39.0035 49.7601C50.6342 49.7601 60.0641 59.1878 60.0641 70.816C60.0567 71.8667 59.9652 72.9175 59.7967 73.9537C59.7784 74.0781 59.7967 74.2026 59.7674 74.3271H87.6211L82.106 35.7265H53.0585C52.1284 35.7265 51.2348 35.3568 50.5793 34.6977L27.7903 11.9101L16.2072 13.8433L17.6134 16.6112C18.148 17.6839 18.1004 18.958 17.4779 19.9868L10.1208 32.2154H28.4897C30.4306 32.2154 32.0016 33.7861 32.0016 35.7265C32.0016 36.4844 31.7563 37.224 31.2985 37.8318L20.7701 51.869C20.1072 52.7514 19.0672 53.2713 17.9613 53.2713H7.43285V65.3204H7.43651ZM7.43651 46.2526H16.2108L21.4769 39.234H7.43651V46.2526Z" fill="#005CEE"/>
</svg>
