<svg width="211" height="94" viewBox="0 0 211 94" fill="none" xmlns="http://www.w3.org/2000/svg">
  <path d="M7.01973 75.8526V12.6924H14.0399H45.6252V7.29205V0.273438H52.6454H73.7059H80.7261H101.783H108.803H129.86H136.88H157.941H164.961V7.29205V12.6924H189.522H196.546H203.563C207.441 12.6924 210.583 15.8337 210.583 19.711V30.2371H203.563V19.711H196.543V45.6143L204.764 49.7223C208.342 51.4943 210.598 55.1446 210.583 59.1353V79.3601C210.583 81.2969 209.012 82.8712 207.071 82.8712H192.533C190.628 90.3475 183.026 94.8655 175.544 92.9616C170.586 91.6985 166.711 87.8286 165.452 82.8712H73.2042C71.3 90.3475 63.6975 94.8655 56.2159 92.9616C51.2575 91.6985 47.383 87.8286 46.1233 82.8712H-0.000442505V75.8526H7.01973ZM157.937 7.29205H52.6454V12.6924H157.937V7.29205ZM189.522 19.711H170.22L161.445 31.405V44.2707H189.522V19.711ZM178.998 86.3787C182.872 86.3787 186.018 83.2373 186.018 79.3601C186.018 75.4828 182.876 72.3415 178.998 72.3415C175.119 72.3415 171.977 75.4828 171.977 79.3601C171.974 83.2373 175.119 86.3787 178.998 86.3787ZM59.6656 86.3787C63.5437 86.3787 66.6858 83.2373 66.6858 79.3601C66.6858 75.4828 63.5437 72.3415 59.6656 72.3415C55.7911 72.3415 52.6454 75.4828 52.6454 79.3601C52.6454 83.2373 55.7875 86.3787 59.6656 86.3787ZM28.0766 75.8526H35.0968V33.7446H28.0766V75.8526ZM14.0399 75.8526H21.0601V33.7446H14.0399V75.8526ZM14.0399 26.726H38.6087C40.5459 26.726 42.117 28.2966 42.117 30.2371V75.8526H46.0683C46.2112 75.3766 46.3759 74.908 46.5664 74.4503C46.6433 74.2417 46.7019 74.0183 46.7861 73.8133C47.1194 73.0408 47.5222 72.3012 47.9909 71.6019C48.0935 71.4518 48.218 71.32 48.3242 71.1735C48.7087 70.6426 49.1225 70.1337 49.5729 69.6578C49.7817 69.4491 50.0051 69.2624 50.2211 69.061C50.6203 68.6839 51.0414 68.3361 51.4809 68.0102C51.7409 67.8235 52.0082 67.6587 52.2755 67.483C52.7296 67.2011 53.1984 66.9448 53.6781 66.7178C53.9674 66.5823 54.2494 66.4432 54.5497 66.3224C55.0917 66.1173 55.6446 65.9453 56.2086 65.8061C56.4832 65.7366 56.7433 65.6487 57.0216 65.5975C58.7574 65.2423 60.5481 65.2423 62.284 65.5975C62.5623 65.6487 62.8223 65.7366 63.0969 65.8061C63.6609 65.9416 64.2139 66.1173 64.7559 66.3224C65.0561 66.4432 65.3381 66.5787 65.6274 66.7178C66.1108 66.9448 66.5796 67.1974 67.03 67.483C67.301 67.6514 67.5683 67.8345 67.8283 68.0102C68.2678 68.3361 68.6889 68.6875 69.0881 69.061C69.3041 69.2624 69.5312 69.4491 69.7363 69.6578C70.1867 70.1337 70.6042 70.6426 70.985 71.1735C71.0876 71.32 71.2157 71.4518 71.3183 71.6019C71.787 72.3012 72.1898 73.0408 72.5231 73.8133C72.611 74.022 72.6659 74.2417 72.7428 74.4503C72.9332 74.908 73.098 75.3766 73.2409 75.8526H165.4C165.54 75.3766 165.708 74.908 165.898 74.4503C165.975 74.2417 166.03 74.0183 166.118 73.8133C166.451 73.0408 166.854 72.3012 167.323 71.6019C167.426 71.4518 167.55 71.32 167.675 71.1735C168.059 70.6426 168.473 70.1337 168.923 69.6578C169.132 69.4491 169.355 69.2624 169.571 69.061C169.971 68.6839 170.392 68.3361 170.831 68.0102C171.091 67.8235 171.359 67.6587 171.63 67.483C172.084 67.2011 172.552 66.9448 173.032 66.7178C173.318 66.5823 173.603 66.4432 173.904 66.3224C174.446 66.1173 174.999 65.9453 175.563 65.8061C175.837 65.7366 176.094 65.6487 176.372 65.5975C178.111 65.2423 179.902 65.2423 181.638 65.5975C181.916 65.6487 182.176 65.7366 182.447 65.8061C183.011 65.9416 183.564 66.1173 184.11 66.3224C184.41 66.4432 184.692 66.5787 184.978 66.7178C185.461 66.9448 185.93 67.1974 186.38 67.483C186.651 67.6514 186.919 67.8345 187.179 68.0102C187.622 68.3361 188.039 68.6875 188.438 69.061C188.654 69.2624 188.882 69.4491 189.087 69.6578C189.537 70.1337 189.955 70.6426 190.335 71.1735C190.442 71.32 190.566 71.4518 190.669 71.6019C191.137 72.3012 191.537 73.0408 191.873 73.8133C191.961 74.022 192.016 74.2417 192.093 74.4503C192.284 74.908 192.452 75.3766 192.591 75.8526H203.563V65.3265H196.543V58.3079H203.449C203.211 57.3047 202.545 56.459 201.622 55.9977L192.207 51.2893H52.6454C50.7082 51.2893 49.1371 49.7186 49.1371 47.7818V30.2371C49.1371 28.2966 50.7082 26.726 52.6454 26.726H156.183L161.449 19.7073H14.0399V26.726ZM154.425 44.2707V33.7446H136.877V44.2707H154.425ZM129.86 44.2707V33.7446H108.803V44.2707H129.86ZM101.779 44.2707V33.7446H80.7225V44.2707H101.779ZM73.7059 44.2707V33.7446H56.1573V44.2707H73.7059Z" fill="#FF961D"/>
</svg>
