<svg width="211" height="113" viewBox="0 0 211 113" fill="none" xmlns="http://www.w3.org/2000/svg">
  <path d="M209.299 57.5476L201.636 25.3249C200.311 18.7713 194.559 14.0519 187.873 14.0373H82.876L76.846 1.94052C76.2492 0.746948 75.0227 -0.00726966 73.69 5.28423e-05H24.5633C23.2343 5.28423e-05 22.0188 0.750609 21.422 1.94052L15.3772 14.0373H3.51114C1.57068 14.0373 0 15.608 0 17.5448V94.7422C0 96.6827 1.57068 98.2533 3.51114 98.2533H21.4073C23.3112 107.721 32.5302 113.85 41.9982 111.946C46.2672 111.09 50.0603 108.67 52.6378 105.162C58.3567 112.942 69.3001 114.612 77.0803 108.893C80.5878 106.315 83.0079 102.522 83.8682 98.2533H154.746C156.676 107.751 165.935 113.883 175.432 111.957C182.338 110.555 187.734 105.158 189.137 98.2533H207.033C208.969 98.2533 210.54 96.6827 210.54 94.7459V68.0993C210.536 64.5442 210.119 61.0038 209.299 57.5476ZM202.467 59.1695C202.507 59.3306 202.515 59.4917 202.551 59.6528H175.447V35.0895H196.748L202.467 59.1695ZM26.7308 7.01867H71.5188L75.0263 14.0373H23.2233L26.7308 7.01867ZM7.01862 21.0559H187.873C191.26 21.0779 194.152 23.4943 194.782 26.8224L195.097 28.0745H7.01862V21.0559ZM168.428 35.0895V59.6528H147.373V35.0895H168.428ZM140.358 35.0895V59.6528H119.305V35.0895H140.358ZM112.287 35.0895V59.6528H91.2347V35.0895H112.287ZM84.2124 35.0895V59.6528H63.1602V35.0895H84.2124ZM56.1453 35.0895V59.6528H35.0894V35.0895H56.1453ZM7.01862 35.0895H28.0745V59.6528H7.01862V35.0895ZM38.6006 105.268C32.7865 105.268 28.0745 100.556 28.0745 94.7422C28.0745 88.9281 32.7865 84.2161 38.6006 84.2161C44.4146 84.2161 49.1266 88.9281 49.1266 94.7422C49.1266 100.556 44.411 105.268 38.6006 105.268ZM66.6677 105.268C60.8536 105.268 56.1416 100.556 56.1416 94.7422C56.1416 88.9281 60.8536 84.2161 66.6677 84.2161C72.4818 84.2161 77.1938 88.9281 77.1938 94.7422C77.1938 100.556 72.4818 105.268 66.6677 105.268ZM171.94 105.268C166.126 105.268 161.414 100.556 161.414 94.7422C161.414 88.9281 166.126 84.2161 171.94 84.2161C177.754 84.2161 182.466 88.9281 182.466 94.7422C182.466 100.556 177.75 105.268 171.94 105.268ZM203.518 73.69H196.499V80.7086H203.518V91.2347H189.133C189.133 91.1725 189.089 91.1176 189.074 91.0517C188.858 90.0521 188.554 89.0746 188.166 88.13C188.031 87.7785 187.844 87.4856 187.687 87.1561C187.386 86.519 187.046 85.8966 186.672 85.2962C186.449 84.9447 186.193 84.6262 185.948 84.2967C185.563 83.7731 185.146 83.2715 184.706 82.7919C184.413 82.4807 184.106 82.1878 183.791 81.8949C183.322 81.4592 182.828 81.0528 182.312 80.6757C181.96 80.4194 181.609 80.1741 181.261 79.9434C180.694 79.5993 180.108 79.2807 179.507 78.9988C179.134 78.8194 178.775 78.6474 178.387 78.4753C177.699 78.2153 176.996 77.9993 176.282 77.8272C175.93 77.7357 175.601 77.6149 175.246 77.5453C173.045 77.095 170.779 77.095 168.579 77.5453C168.227 77.6149 167.876 77.7357 167.542 77.8272C166.828 77.9993 166.126 78.2153 165.437 78.4753C165.053 78.629 164.69 78.8268 164.317 78.9988C163.716 79.2807 163.131 79.5956 162.563 79.9434C162.212 80.1778 161.864 80.4231 161.512 80.6757C160.996 81.0528 160.502 81.4592 160.033 81.8949C159.715 82.1878 159.411 82.477 159.118 82.7919C158.679 83.2715 158.261 83.7731 157.877 84.2967C157.631 84.6262 157.375 84.9447 157.152 85.2962C156.778 85.8966 156.438 86.5154 156.138 87.1561C155.98 87.4819 155.786 87.7932 155.658 88.13C155.27 89.0783 154.966 90.0558 154.75 91.0517C154.75 91.1176 154.71 91.1725 154.695 91.2347H83.8646C83.8646 91.1725 83.8206 91.1176 83.806 91.0517C83.59 90.0521 83.2861 89.0746 82.898 88.13C82.7625 87.7785 82.5758 87.4856 82.4184 87.1561C82.1182 86.519 81.7777 85.8966 81.4042 85.2962C81.1809 84.9447 80.9246 84.6262 80.6793 84.2967C80.2912 83.7731 79.8775 83.2715 79.4381 82.7919C79.1452 82.4807 78.8377 82.1878 78.5228 81.8949C78.0542 81.4592 77.5599 81.0528 77.0437 80.6757C76.6922 80.4194 76.3407 80.1741 75.9892 79.9434C75.4217 79.5993 74.8359 79.2807 74.2355 78.9988C73.862 78.8194 73.5032 78.6474 73.1152 78.4753C72.4342 78.2153 71.7349 77.9993 71.0246 77.8272C70.6731 77.7357 70.3436 77.6149 69.9738 77.5453C67.821 77.106 65.5986 77.106 63.4421 77.5453C63.2591 77.5819 63.0906 77.6039 62.8966 77.6442C61.9227 77.8565 60.9708 78.1567 60.0445 78.5339L59.5246 78.7608C58.602 79.1636 57.7123 79.6469 56.8702 80.2034L56.7274 80.3132C55.9256 80.8697 55.1677 81.4958 54.4684 82.1768C54.3549 82.2866 54.2414 82.3855 54.1169 82.499C53.586 83.0372 53.0881 83.6157 52.6305 84.2198C52.1582 83.601 51.6493 83.0152 51.1001 82.466C50.9866 82.3562 50.8731 82.2537 50.7486 82.1438C50.0493 81.4629 49.2914 80.8404 48.4896 80.2803L48.3505 80.1704C47.5084 79.6139 46.6224 79.1306 45.6961 78.7279L45.1762 78.5009C44.2535 78.1238 43.2979 77.8272 42.324 77.6112C42.1446 77.5709 41.9726 77.549 41.7785 77.5124C39.6257 77.073 37.4033 77.073 35.2505 77.5124C34.899 77.5856 34.5476 77.7028 34.2144 77.7943C33.5004 77.9664 32.7938 78.1824 32.1092 78.4423C31.7247 78.5961 31.3623 78.7938 30.9888 78.9659C30.392 79.2478 29.8136 79.5627 29.2497 79.9105C28.8982 80.1411 28.5504 80.3864 28.1989 80.6427C27.6827 81.0198 27.1884 81.4299 26.7198 81.8656C26.4049 82.1585 26.0974 82.4477 25.8045 82.7626C25.3615 83.2422 24.9478 83.7438 24.5633 84.2674C24.318 84.5969 24.0617 84.9154 23.8384 85.2669C23.4649 85.8673 23.1245 86.4861 22.8242 87.1268C22.6668 87.4527 22.4727 87.7639 22.3446 88.1007C21.9565 89.0453 21.6526 90.0229 21.4366 91.0224C21.4366 91.0846 21.3927 91.1395 21.378 91.2054H7.01862V80.7123H14.0372V73.6937H7.01862V66.6714H203.434C203.452 67.1474 203.518 67.6233 203.518 68.0993V73.69Z" fill="#00C653"/>
</svg>
