<svg width="512" height="512" viewBox="0 0 512 512" fill="none" xmlns="http://www.w3.org/2000/svg">
<mask id="mask0" mask-type="alpha" maskUnits="userSpaceOnUse" x="0" y="0" width="512" height="512">
<circle cx="256" cy="256" r="256" fill="#C4C4C4"/>
</mask>
<g mask="url(#mask0)">
<rect width="250.501" height="709.987" transform="matrix(-0.947422 -0.319987 -0.319987 0.947422 267.517 -116.843)" fill="#0053B3"/>
<g style="mix-blend-mode:hard-light" opacity="0.3">
<rect width="250.501" height="737.512" transform="matrix(-0.320883 0.947119 0.947119 0.320883 34.1748 -212.988)" fill="#EAEFF4"/>
</g>
<g style="mix-blend-mode:hard-light" opacity="0.3">
<rect width="250.501" height="737.512" transform="matrix(-0.320883 0.947119 0.947119 0.320883 -122.325 251.025)" fill="#EAEFF4"/>
</g>
<g style="mix-blend-mode:hard-light">
<rect width="250.501" height="585.329" transform="matrix(-0.947422 -0.319987 -0.319987 0.947422 718.8 63.3218)" fill="#E2011C"/>
</g>
<g style="mix-blend-mode:hard-light">
<rect width="250.501" height="709.987" transform="matrix(-0.947422 -0.319987 -0.319987 0.947422 244.037 -54.7844)" fill="#002C7B"/>
</g>
<g style="mix-blend-mode:hard-light">
<rect width="236.591" height="709.987" transform="matrix(-0.947422 -0.319987 -0.319987 0.947422 494.975 -57.4688)" fill="white"/>
</g>
</g>
<path d="M232.445 280.783C232.241 281.398 232.138 282.115 232.138 282.934C232.138 286.415 233.06 289.283 234.903 291.535C236.746 293.583 238.999 295.324 241.661 296.758C244.324 297.987 247.191 298.908 250.263 299.523C253.335 299.932 256.1 300.137 258.557 300.137C263.677 300.137 268.695 299.318 273.61 297.679C278.525 295.836 282.929 293.071 286.82 289.385L333.207 321.334C322.557 332.188 310.372 339.766 296.65 344.067C282.929 348.367 268.695 350.518 253.949 350.518C242.481 350.518 231.524 348.982 221.079 345.91C210.839 342.838 201.828 338.23 194.045 332.086C186.468 325.942 180.426 318.364 175.921 309.353C171.415 300.137 169.162 289.385 169.162 277.097C169.162 263.375 171.62 250.575 176.535 238.697C181.45 226.614 188.311 216.169 197.117 207.363C206.129 198.556 216.778 191.695 229.066 186.78C241.559 181.66 255.281 179.1 270.231 179.1C282.109 179.1 292.759 180.841 302.18 184.323C311.601 187.599 319.588 192.412 326.141 198.761C332.695 204.905 337.713 212.483 341.194 221.494C344.881 230.3 346.724 240.233 346.724 251.292C346.724 255.798 346.314 260.713 345.495 266.038C344.881 271.363 343.857 276.278 342.423 280.783H232.445ZM286.82 244.227C287.025 243.612 287.127 242.998 287.127 242.383C287.127 241.564 287.127 240.95 287.127 240.54C287.127 235.42 285.181 231.324 281.29 228.252C277.604 225.18 272.381 223.644 265.623 223.644C261.322 223.644 257.431 224.361 253.949 225.795C250.673 227.228 247.805 228.969 245.348 231.017C242.89 233.065 240.842 235.318 239.204 237.775C237.77 240.028 236.746 242.179 236.132 244.227H286.82Z" fill="#001DAD"/>
</svg>
