<svg xmlns="http://www.w3.org/2000/svg" width="169" height="40" fill="none" viewBox="0 0 169 40">
    <mask id="a" width="41" height="40" x="0" y="0" maskUnits="userSpaceOnUse">
        <ellipse cx="20" cy="20" fill="#C4C4C4" rx="20" ry="20"/>
    </mask>
    <g mask="url(#a)">
        <path fill="#EAEFF4" d="M2.67-16.64L-3.61 1.893l54.574 18.49 6.28-18.536zM-9.557 19.61l-6.28 18.535 54.574 18.49 6.28-18.536z" opacity=".3" style="mix-blend-mode:hard-light"/>
        <path fill="#E2011C" d="M56.158 4.946L37.616-1.316 22.983 42.008l18.542 6.263z" style="mix-blend-mode:hard-light"/>
        <path fill="#002C7B" d="M19.066-4.281L.524-10.544l-17.75 52.552L1.318 48.27z" style="mix-blend-mode:hard-light"/>
        <path fill="#fff" d="M38.67-4.491l-17.512-5.915-17.75 52.552 17.513 5.914z" style="mix-blend-mode:hard-light"/>
    </g>
    <path fill="#0053B3" d="M18.16 21.936a.532.532 0 0 0-.024.168c0 .272.072.496.216.672.144.16.32.296.528.408.208.096.432.168.672.216.24.032.456.048.648.048.4 0 .792-.064 1.176-.192a3.04 3.04 0 0 0 1.032-.648l3.624 2.496c-.831.848-1.784 1.44-2.856 1.776a11.088 11.088 0 0 1-3.336.504c-.896 0-1.752-.12-2.568-.36-.8-.24-1.504-.6-2.112-1.08a5.315 5.315 0 0 1-1.416-1.776c-.352-.72-.528-1.56-.528-2.52 0-1.072.192-2.072.576-3 .384-.944.92-1.76 1.608-2.448a7.529 7.529 0 0 1 2.496-1.608c.976-.4 2.048-.6 3.216-.6.928 0 1.76.136 2.497.408.735.256 1.36.632 1.871 1.128a4.73 4.73 0 0 1 1.177 1.776c.288.688.431 1.464.431 2.328 0 .352-.032.736-.096 1.152-.047.416-.128.8-.24 1.152H18.16zm4.248-2.856a.453.453 0 0 0 .024-.144v-.144c0-.4-.152-.72-.456-.96-.288-.24-.696-.36-1.224-.36-.336 0-.64.056-.912.168-.256.112-.48.248-.672.408-.192.16-.352.336-.48.528a2.044 2.044 0 0 0-.24.504h3.96zM27.594 22.224l.72-4.032h6.552l-.72 4.032h-6.552zM50.721 25.055c-.336.288-.728.584-1.176.888a8.097 8.097 0 0 1-1.488.768c-.56.224-1.192.408-1.896.552-.688.144-1.456.216-2.304.216-1.28 0-2.424-.176-3.432-.528-.992-.352-1.84-.856-2.544-1.512a6.592 6.592 0 0 1-1.584-2.376c-.368-.928-.552-1.96-.552-3.096 0-1.456.248-2.816.744-4.08a10.253 10.253 0 0 1 2.136-3.312 10.018 10.018 0 0 1 3.24-2.232c1.248-.544 2.616-.816 4.104-.816 1.472 0 2.768.232 3.888.696 1.12.448 1.976 1.008 2.568 1.68l-3.864 3.984a2.496 2.496 0 0 0-1.152-.912c-.464-.208-.992-.312-1.584-.312-.608 0-1.16.128-1.656.384-.496.24-.92.576-1.272 1.008a4.5 4.5 0 0 0-.816 1.464 5.513 5.513 0 0 0-.288 1.8c0 .832.256 1.536.768 2.112.528.576 1.312.864 2.352.864.608 0 1.176-.128 1.704-.384a5.3 5.3 0 0 0 1.368-.936l2.736 4.08z"/>
    <path fill="#0053B3" d="M60.095 27l1.152-6.529h-4.848L55.247 27h-5.544l3-16.992h5.52L57.19 15.84h4.848l1.032-5.832h5.568l-3 16.992h-5.544z"/>
    <path fill="#0053B3" d="M78.284 27l-.384-2.593h-5.52L70.963 27H64.77l10.44-16.992h5.857L84.044 27h-5.76zM76.94 15.79l-2.424 4.368h2.928l-.504-4.368zM99.736 20.76a9.493 9.493 0 0 1-.912 2.76 6.457 6.457 0 0 1-1.68 2.087c-.688.576-1.52 1.024-2.496 1.344-.977.32-2.096.48-3.36.48-1.088 0-2.08-.12-2.977-.36-.896-.24-1.664-.584-2.304-1.032a4.96 4.96 0 0 1-1.488-1.68c-.352-.656-.528-1.4-.528-2.232 0-.224.016-.48.048-.768.032-.304.064-.576.096-.816l1.8-10.536h5.496l-1.752 9.816a1.677 1.677 0 0 0-.048.408v.384c0 .528.16.992.48 1.392.32.4.864.6 1.632.6.497 0 .897-.08 1.2-.24.32-.16.576-.368.769-.624.191-.256.336-.544.432-.864.096-.32.176-.64.24-.96l1.8-9.912h5.4L99.736 20.76zM107.404 14.663l-.36 1.968h5.232l-.792 4.512h-5.209L105.243 27h-5.448l3-16.992h10.945l-.816 4.656h-5.52zM119.148 14.663l-.36 1.968h5.232l-.792 4.512h-5.208L116.988 27h-5.448l3-16.992h10.944l-.816 4.656h-5.52zM123.284 27l3-16.993h11.112l-.816 4.632h-5.88l-.288 1.632h5.616l-.768 4.32h-5.616l-.312 1.776h6.576L135.092 27h-11.808zM152.104 20.76a9.493 9.493 0 0 1-.912 2.76 6.457 6.457 0 0 1-1.68 2.087c-.688.576-1.52 1.024-2.496 1.344-.976.32-2.096.48-3.36.48-1.088 0-2.08-.12-2.976-.36-.896-.24-1.664-.584-2.304-1.032a4.96 4.96 0 0 1-1.488-1.68c-.352-.656-.528-1.4-.528-2.232 0-.224.016-.48.048-.768.032-.304.064-.576.096-.816l1.8-10.536h5.496l-1.752 9.816a1.677 1.677 0 0 0-.048.408v.384c0 .528.16.992.48 1.392.32.4.864.6 1.632.6.496 0 .896-.08 1.2-.24.32-.16.576-.368.768-.624.192-.256.336-.544.432-.864.096-.32.176-.64.24-.96l1.8-9.912h5.4l-1.848 10.752zM161.572 27l-2.328-6.217h-.672L157.516 27h-5.352l3-16.992h6.984c.928 0 1.768.104 2.52.312.752.208 1.392.512 1.92.912s.928.896 1.2 1.488c.288.576.432 1.24.432 1.992 0 1.408-.336 2.568-1.008 3.48-.656.912-1.56 1.536-2.712 1.872L167.812 27h-6.24zm-1.224-9.745c.736 0 1.312-.12 1.728-.36.416-.256.624-.656.624-1.2 0-.496-.176-.832-.528-1.008-.336-.192-.8-.288-1.392-.288h-1.032l-.504 2.856h1.104z"/>
</svg>
